<svg width="1451" height="289" viewBox="0 0 1451 289" fill="none" xmlns="http://www.w3.org/2000/svg">
<path d="M0 142H17V289H0V142Z" fill="white"/>
<path d="M0 142H17V289H0V142Z" fill="white"/>
<path d="M0 142H17V289H0V142Z" fill="white"/>
<path d="M0 142H17V289H0V142Z" fill="white"/>
<path d="M487 142H504V289H487V142Z" fill="white"/>
<path d="M487 142H504V289H487V142Z" fill="white"/>
<path d="M487 142H504V289H487V142Z" fill="white"/>
<path d="M487 142H504V289H487V142Z" fill="white"/>
<path d="M291 0H308V142H291V0Z" fill="white"/>
<path d="M291 0H308V142H291V0Z" fill="white"/>
<path d="M291 0H308V142H291V0Z" fill="white"/>
<path d="M291 0H308V142H291V0Z" fill="white"/>
<path d="M487 142V159L17 159V142H487Z" fill="white"/>
<path d="M487 142V159L17 159V142H487Z" fill="white"/>
<path d="M487 142V159L17 159V142H487Z" fill="white"/>
<path d="M487 142V159L17 159V142H487Z" fill="white"/>
<path d="M673 159H690V289H673V159Z" fill="white"/>
<path d="M673 159H690V289H673V159Z" fill="white"/>
<path d="M673 159H690V289H673V159Z" fill="white"/>
<path d="M673 159H690V289H673V159Z" fill="white"/>
<path d="M673 0H690V142H673V0Z" fill="white"/>
<path d="M673 0H690V142H673V0Z" fill="white"/>
<path d="M673 0H690V142H673V0Z" fill="white"/>
<path d="M673 0H690V142H673V0Z" fill="white"/>
<path d="M1055 0H1072V142H1055V0Z" fill="white"/>
<path d="M1055 0H1072V142H1055V0Z" fill="white"/>
<path d="M1055 0H1072V142H1055V0Z" fill="white"/>
<path d="M1055 0H1072V142H1055V0Z" fill="white"/>
<path d="M1434 0H1451V142H1434V0Z" fill="white"/>
<path d="M1434 0H1451V142H1434V0Z" fill="white"/>
<path d="M1434 0H1451V142H1434V0Z" fill="white"/>
<path d="M1434 0H1451V142H1434V0Z" fill="white"/>
<path d="M1451 142C1451 151.389 1443.39 159 1434 159L673 159V142H1451Z" fill="white"/>
<path d="M1451 142C1451 151.389 1443.39 159 1434 159L673 159V142H1451Z" fill="white"/>
<path d="M1451 142C1451 151.389 1443.39 159 1434 159L673 159V142H1451Z" fill="white"/>
<path d="M1451 142C1451 151.389 1443.39 159 1434 159L673 159V142H1451Z" fill="white"/>
</svg>
